# xmcd
#
# Track frame offsets: 
#        150
#        12998
#        38473
#        54937
#        79531
#        109155
#        118659
#        133137
#
# Disc length: 1938 seconds
#
# Revision: 0
# Processed by: cddbd v1.5.2PL0 Copyright (c) Steve Scherf et al.
# Submitted via: ExactAudioCopyFreeDBPlugin 1.0
#
DISCID=5b079008
DTITLE=Willie and The Whips - Homage
DYEAR=2016
DGENRE=Blues
TTITLE0=Got My Mojo Working
TTITLE1=Thunder
TTITLE2=Shake'em On Down
TTITLE3=Poor Black Mattie
TTITLE4=Peggy O
TTITLE5=I Ain't Got You
TTITLE6=She Loves me
TTITLE7=Can't Keep A Good Man Down
EXTD=
EXTT0=
EXTT1=
EXTT2=
EXTT3=
EXTT4=
EXTT5=
EXTT6=
EXTT7=
PLAYORDER=
